0.06m3min_grf.mot
version=1
nRows=20
nColumns 19
inDegrees=yes
endheader
time	1_ground_force_vx	1_ground_force_vy	1_ground_force_vz	1_ground_force_px	1_ground_force_py	1_ground_force_pz	1_ground_torque_x	1_ground_torque_y	1_ground_torque_z	2_ground_force_vx	2_ground_force_vy	2_ground_force_vz	2_ground_force_px	2_ground_force_py	2_ground_force_pz	2_ground_torque_x	2_ground_torque_y	2_ground_torque_z
            0.005000	            2.269123	          142.844789	          -16.635440	           -0.228590	            0.005907	           -0.331327	            0.002442	            0.153731	           -0.017903	            7.158694	          134.038681	           14.178097	           -0.225510	            0.005597	           -0.677248	            0.040579	            0.759792	            0.080368
            0.005500	            2.590305	          140.681859	          -16.691367	           -0.229617	            0.005909	           -0.331974	            0.002955	            0.160489	           -0.019041	            7.404721	          130.726379	           13.743818	           -0.225578	            0.005592	           -0.676164	            0.039731	            0.701431	            0.073744
            0.006000	            2.728151	          137.077162	          -16.844736	           -0.228632	            0.005908	           -0.331710	            0.003590	            0.180406	           -0.022169	            7.172425	          130.173415	           13.648090	           -0.225723	            0.005598	           -0.677795	            0.040707	            0.738801	            0.077460
            0.006500	            2.591518	          136.534962	          -16.525722	           -0.228811	            0.005909	           -0.331916	            0.003145	            0.165691	           -0.020055	            7.134153	          127.779812	           13.498784	           -0.225154	            0.005597	           -0.677081	            0.040661	            0.728276	            0.076936
            0.007000	            2.226244	          133.468802	          -16.171105	           -0.228972	            0.005908	           -0.331597	            0.002662	            0.159596	           -0.019337	            6.905180	          126.306114	           13.399771	           -0.226114	            0.005598	           -0.678238	            0.039502	            0.722558	            0.076656
            0.007500	            2.318454	          131.846036	          -16.086577	           -0.228769	            0.005904	           -0.330803	            0.002357	            0.134015	           -0.016351	            6.959114	          124.282501	           12.876314	           -0.225398	            0.005599	           -0.677962	            0.040788	            0.728434	            0.075470
            0.008000	            2.274812	          129.139093	          -15.410219	           -0.229664	            0.005905	           -0.330990	            0.003265	            0.185334	           -0.022116	            6.874075	          121.888059	           12.914740	           -0.225092	            0.005597	           -0.676923	            0.039043	            0.692298	            0.073353
            0.008500	            2.091296	          128.058053	          -15.551970	           -0.228846	            0.005899	           -0.329486	            0.002373	            0.145309	           -0.017647	            6.930147	          119.310821	           12.717809	           -0.225402	            0.005594	           -0.676525	            0.039317	            0.676886	            0.072152
            0.009000	            2.184728	          125.351923	          -15.059376	           -0.228715	            0.005903	           -0.330619	            0.002698	            0.154807	           -0.018598	            6.936046	          117.654163	           12.524183	           -0.224937	            0.005600	           -0.677529	            0.036696	            0.622456	            0.066260
            0.009500	            1.955420	          123.369743	          -15.250734	           -0.228605	            0.005904	           -0.330839	            0.001852	            0.116849	           -0.014445	            6.849555	          115.629023	           12.282355	           -0.225819	            0.005591	           -0.675909	            0.039120	            0.660390	            0.070148
            0.010000	            2.002748	          120.844263	          -14.848966	           -0.228173	            0.005905	           -0.330877	            0.002070	            0.124921	           -0.015350	            6.710252	          115.260888	           12.093388	           -0.226097	            0.005597	           -0.677868	            0.036990	            0.635363	            0.066663
            0.010500	            2.095104	          119.041034	          -14.719355	           -0.228581	            0.005903	           -0.330561	            0.001454	            0.082634	           -0.010218	            6.906936	          112.683656	           12.037181	           -0.225255	            0.005596	           -0.676814	            0.036107	            0.589065	            0.062926
            0.011000	            1.775524	          117.416811	          -14.312812	           -0.228096	            0.005902	           -0.330331	            0.002056	            0.135948	           -0.016572	            6.586880	          110.473361	           11.841724	           -0.225854	            0.005596	           -0.677563	            0.038577	            0.647005	            0.069353
            0.011500	            1.684410	          116.154344	          -14.180428	           -0.227313	            0.005900	           -0.329814	            0.001300	            0.089624	           -0.010942	            6.503046	          107.711642	           11.597267	           -0.225188	            0.005594	           -0.676159	            0.040293	            0.667388	            0.071857
            0.012000	            1.685245	          113.449769	          -14.054454	           -0.228040	            0.005903	           -0.330388	            0.000828	            0.055741	           -0.006905	            6.551767	          107.160363	           11.313707	           -0.224921	            0.005599	           -0.677473	            0.038078	            0.622807	            0.065754
            0.012500	            1.824176	          112.005704	          -13.602420	           -0.227217	            0.005902	           -0.330175	            0.001372	            0.084253	           -0.010232	            6.417137	          105.503031	           11.167069	           -0.225741	            0.005602	           -0.678913	            0.040361	            0.663569	            0.070236
            0.013000	            1.595194	          109.482334	          -13.704385	           -0.227977	            0.005902	           -0.330221	            0.001801	            0.123577	           -0.015469	            6.423763	          103.661715	           11.113571	           -0.225749	            0.005597	           -0.677648	            0.037049	            0.597862	            0.064097
            0.013500	            1.550429	          107.317957	          -13.438411	           -0.228044	            0.005906	           -0.331275	            0.002061	            0.142661	           -0.017864	            6.430059	          101.823077	           10.309222	           -0.225108	            0.005600	           -0.677911	            0.042122	            0.667021	            0.067534
            0.014000	            1.688775	          105.334275	          -13.263831	           -0.228252	            0.005903	           -0.330494	            0.002198	            0.137119	           -0.017266	            6.484343	           99.796602	           10.583543	           -0.225289	            0.005600	           -0.677993	            0.038000	            0.584832	            0.062022
            0.014500	            1.506155	          103.711062	          -13.086909	           -0.227230	            0.005908	           -0.331612	            0.001225	            0.084319	           -0.010640	            6.492901	           97.403351	           10.387289	           -0.226773	            0.005594	           -0.677689	            0.033355	            0.500380	            0.053362
